<?xml version="1.0" standalone="no"?>
<!DOCTYPE svg PUBLIC "-//W3C//DTD SVG 20010904//EN"
 "http://www.w3.org/TR/2001/REC-SVG-20010904/DTD/svg10.dtd">
<svg version="1.0" xmlns="http://www.w3.org/2000/svg"
 width="260.000000pt" height="260.000000pt" viewBox="0 0 260.000000 260.000000"
 preserveAspectRatio="xMidYMid meet">
<metadata>
Created by potrace 1.11, written by Peter Selinger 2001-2013
</metadata>
<g transform="translate(0.000000,260.000000) scale(0.100000,-0.100000)"
fill="#000000" stroke="none">
<path d="M699 1805 c-1 -5 -1 -12 -1 -15 0 -3 -16 -4 -36 -4 -20 1 -47 -4 -59
-12 -14 -9 -24 -10 -28 -4 -3 6 -11 10 -16 10 -6 0 -8 -4 -4 -9 3 -5 1 -12 -5
-16 -5 -3 -10 0 -10 7 0 9 -3 9 -10 -2 -5 -8 -10 -10 -10 -5 0 6 -5 2 -11 -8
-10 -18 -11 -18 -24 0 -13 17 -14 16 -8 -5 4 -18 2 -21 -13 -15 -14 5 -16 3
-10 -12 4 -11 4 -16 0 -12 -4 4 -14 1 -22 -6 -13 -10 -15 -9 -8 3 4 9 2 8 -7
-2 -8 -10 -17 -14 -21 -10 -4 4 -7 3 -6 -3 1 -5 2 -17 1 -25 -1 -13 -2 -13
-11 0 -8 13 -10 12 -11 -5 -1 -11 -1 -24 0 -29 1 -5 -5 -3 -14 4 -9 7 -15 9
-14 4 4 -22 -2 -35 -13 -28 -7 5 -9 2 -5 -9 4 -11 -1 -18 -15 -23 -16 -5 -18
-8 -7 -15 11 -7 11 -9 1 -9 -13 0 -52 -81 -55 -112 -1 -10 -5 -18 -9 -18 -4 0
-8 -5 -8 -11 0 -5 6 -7 13 -4 6 4 4 0 -5 -8 -14 -11 -15 -16 -5 -27 10 -10 9
-11 -2 -5 -10 6 -13 4 -8 -7 3 -9 0 -21 -6 -28 -9 -9 -9 -11 -1 -7 8 5 11 -2
10 -17 0 -13 -4 -22 -8 -20 -4 2 -10 -1 -14 -7 -4 -8 -3 -9 4 -5 6 3 16 -3 22
-15 7 -12 8 -19 2 -15 -15 9 -7 -51 9 -71 9 -11 10 -14 2 -9 -7 4 -13 2 -13
-3 0 -6 5 -11 10 -11 6 0 10 -7 10 -15 0 -26 23 -65 34 -58 6 4 4 -2 -4 -12
-9 -11 -10 -16 -2 -11 11 6 17 -11 13 -37 0 -4 2 -6 6 -5 14 5 54 -42 51 -60
-2 -11 3 -16 15 -14 10 2 21 -6 27 -20 5 -13 9 -19 9 -14 1 5 8 3 16 -4 8 -7
12 -17 8 -24 -4 -6 1 -5 10 3 15 12 17 11 17 -3 0 -14 11 -20 32 -18 3 1 12
-5 18 -13 7 -8 21 -15 30 -15 10 0 21 -6 23 -12 4 -10 6 -9 6 1 1 9 8 6 21 -9
11 -13 20 -18 20 -12 0 7 7 12 15 12 8 0 15 -4 15 -8 0 -5 29 -9 65 -9 36 0
68 -3 71 -6 3 -3 18 0 34 6 24 9 27 14 17 26 -10 12 -9 12 11 0 12 -8 22 -18
22 -24 0 -5 4 -4 9 3 5 8 20 15 34 15 14 1 25 6 24 11 -1 5 4 11 12 14 9 3 11
0 6 -9 -6 -11 -5 -11 5 -2 11 10 11 15 -1 29 -12 16 -11 15 14 -1 21 -13 27
-15 25 -4 -2 8 3 13 10 12 6 -2 12 1 12 6 0 6 9 8 21 6 17 -4 19 -2 9 10 -12
15 -4 20 23 16 4 0 7 7 7 17 0 14 2 15 10 2 8 -13 10 -13 10 0 0 8 12 24 26
37 16 13 24 29 21 37 -4 10 -1 13 9 9 9 -3 26 8 45 30 17 20 36 35 42 33 7 -1
8 -1 4 2 -4 2 -3 10 4 18 6 8 16 11 22 7 5 -3 8 -2 5 3 -2 5 9 23 25 39 27 28
28 28 16 5 -11 -22 -11 -24 3 -12 20 16 48 5 48 -19 0 -10 3 -18 8 -18 17 3
32 -2 32 -10 0 -5 16 -26 35 -46 20 -20 33 -40 30 -45 -3 -6 1 -7 9 -4 11 4
19 -2 25 -17 5 -13 10 -20 10 -16 1 13 31 -20 31 -35 0 -9 3 -9 8 -2 4 7 16 1
33 -17 15 -15 24 -31 20 -34 -3 -4 -1 -5 4 -4 19 6 55 -12 49 -24 -4 -7 -3 -9
1 -4 5 4 19 0 33 -9 17 -11 22 -12 16 -3 -6 11 -5 12 8 2 8 -7 18 -10 21 -6 4
3 7 -2 7 -13 0 -15 2 -16 9 -5 6 9 14 10 22 5 8 -5 27 -9 43 -10 15 -1 32 -7
37 -15 6 -9 9 -10 9 -2 0 8 18 11 55 9 31 -2 58 1 61 6 3 5 11 4 19 -2 9 -7
16 -6 25 5 7 8 16 12 21 9 5 -3 9 0 9 7 0 8 5 7 17 -2 11 -10 14 -10 9 -1 -6
11 5 17 27 13 4 0 7 3 7 8 0 10 39 27 53 23 4 -1 7 2 7 7 0 11 50 44 67 44 7
0 10 4 7 8 -3 5 4 17 16 29 11 11 20 17 20 13 0 -5 10 8 21 27 12 19 27 38 33
42 6 4 7 8 2 8 -5 0 -3 7 4 15 7 8 17 12 24 8 6 -4 5 0 -2 9 -9 11 -10 18 -2
23 5 3 10 17 10 31 0 13 4 24 9 24 9 0 26 84 22 107 -1 6 3 14 9 18 8 5 7 11
-1 21 -9 11 -8 14 2 14 12 0 12 2 1 9 -17 11 -17 21 0 32 8 5 9 9 2 9 -7 0
-14 9 -17 20 -3 12 -1 18 5 14 6 -4 6 1 -1 13 -6 11 -7 23 -4 27 3 3 1 6 -6 6
-8 0 -11 8 -8 20 3 11 1 20 -5 20 -5 0 -6 5 -3 10 3 6 1 10 -5 10 -6 0 -8 5
-5 10 3 6 1 10 -5 10 -6 0 -9 4 -6 9 3 5 -2 12 -11 15 -15 6 -15 8 -3 16 13 8
12 10 -2 10 -16 0 -23 17 -19 42 0 4 -7 4 -16 1 -11 -4 -14 -2 -9 5 3 6 -3 16
-14 22 -12 7 -19 18 -16 26 3 7 2 13 -2 13 -20 -3 -32 2 -27 11 4 6 3 10 -2 9
-23 -4 -35 2 -30 16 4 8 1 17 -5 21 -7 4 -8 3 -4 -4 11 -18 -9 -14 -24 3 -7 9
-15 13 -18 10 -3 -2 -13 4 -23 16 -11 12 -18 16 -21 8 -3 -8 -8 -8 -19 2 -15
14 -23 18 -69 27 -14 3 -28 10 -32 16 -5 7 -8 6 -8 -3 0 -11 -3 -11 -15 -1
-12 10 -15 10 -15 -1 0 -9 -3 -10 -8 -4 -11 15 -32 17 -47 5 -7 -6 -16 -7 -19
-2 -6 10 -42 9 -52 -1 -4 -4 -14 -1 -22 6 -13 10 -14 9 -7 -2 6 -11 3 -13 -13
-9 -14 4 -20 2 -15 -5 4 -6 -1 -8 -13 -5 -11 3 -25 -1 -32 -9 -7 -7 -17 -11
-23 -8 -5 4 -9 1 -9 -5 0 -6 -4 -9 -9 -6 -5 3 -14 -1 -21 -9 -7 -8 -18 -15
-24 -15 -7 0 -22 -9 -34 -20 -12 -12 -22 -18 -22 -15 0 3 -6 0 -14 -7 -8 -7
-12 -16 -9 -20 4 -8 -12 -12 -30 -9 -5 1 -6 -3 -3 -8 7 -10 -18 -33 -27 -26
-4 3 -5 2 -3 -1 6 -8 -37 -52 -46 -47 -4 2 -5 -4 -1 -14 3 -10 3 -15 -1 -12
-10 9 -114 -93 -108 -105 3 -5 0 -6 -6 -2 -7 4 -12 1 -12 -6 0 -8 -5 -6 -11 5
-6 9 -14 15 -20 12 -5 -4 -9 1 -9 9 0 8 -9 20 -21 26 -12 7 -18 18 -15 26 3 7
2 13 -2 13 -21 -3 -32 2 -26 13 4 6 3 8 -3 5 -5 -4 -19 4 -30 17 -12 13 -27
26 -34 29 -12 5 -11 8 1 17 13 10 12 11 -3 6 -11 -3 -22 2 -29 14 -7 11 -19
20 -26 20 -7 0 -10 5 -7 10 3 6 -1 10 -9 10 -9 0 -16 7 -16 15 0 9 -6 12 -17
8 -11 -4 -14 -3 -9 5 6 11 -11 17 -36 13 -4 0 -5 6 -2 14 5 11 2 13 -12 8 -12
-4 -15 -3 -10 5 5 8 0 12 -14 12 -12 0 -19 4 -16 8 2 4 -4 9 -15 10 -42 4 -49
6 -49 12 0 4 -11 6 -25 5 -14 -2 -27 0 -30 5 -3 4 -15 6 -27 2 -16 -4 -19 -2
-13 9 8 12 6 12 -8 0 -14 -11 -17 -11 -17 0 0 12 -2 12 -9 1 -4 -8 -12 -14
-16 -14 -4 0 -12 6 -16 14 -5 7 -9 9 -10 3z m-5 -43 c3 -5 -1 -9 -9 -9 -8 0
-12 4 -9 9 3 4 7 8 9 8 2 0 6 -4 9 -8z m96 4 c0 -3 -4 -8 -10 -11 -5 -3 -10
-1 -10 4 0 6 5 11 10 11 6 0 10 -2 10 -4z m-206 -24 c3 -5 -1 -9 -9 -9 -8 0
-12 4 -9 9 3 4 7 8 9 8 2 0 6 -4 9 -8z m103 -17 c0 -8 -4 -12 -9 -9 -5 3 -6
10 -3 15 9 13 12 11 12 -6z m-182 -14 c3 -5 2 -12 -3 -15 -5 -3 -9 1 -9 9 0
17 3 19 12 6z m105 -6 c0 -7 -30 -13 -34 -7 -3 4 4 9 15 9 10 1 19 0 19 -2z
m215 -5 c3 -5 1 -10 -4 -10 -6 0 -11 5 -11 10 0 6 2 10 4 10 3 0 8 -4 11 -10z
m-355 -14 c0 -3 -4 -8 -10 -11 -5 -3 -10 -1 -10 4 0 6 5 11 10 11 6 0 10 -2
10 -4z m135 -25 c-9 -8 -36 -10 -30 -2 2 4 11 8 20 8 8 0 13 -3 10 -6z m-95
-21 c0 -5 -2 -10 -4 -10 -3 0 -8 5 -11 10 -3 6 -1 10 4 10 6 0 11 -4 11 -10z
m37 -9 c0 -11 -5 -18 -9 -15 -4 3 -5 11 -1 19 7 21 12 19 10 -4z m319 -7 c1
-9 0 -13 -4 -10 -3 4 -7 14 -8 22 -1 9 0 13 4 10 3 -4 7 -14 8 -22z m54 16 c8
-5 11 -10 5 -10 -5 0 -17 5 -25 10 -8 5 -10 10 -5 10 6 0 17 -5 25 -10z m-150
-14 c0 -2 -7 -7 -16 -10 -8 -3 -12 -2 -9 4 6 10 25 14 25 6z m60 -6 c0 -5 -5
-10 -11 -10 -5 0 -7 5 -4 10 3 6 8 10 11 10 2 0 4 -4 4 -10z m-222 -22 c-2 -7
7 -14 20 -16 12 -2 22 2 22 8 0 6 -6 8 -12 4 -7 -4 -10 -3 -5 1 11 12 49 14
70 3 9 -5 17 -5 17 -1 0 4 17 7 37 7 53 -2 55 -3 49 -12 -3 -5 5 -8 17 -7 23
2 48 -15 40 -27 -2 -4 2 -5 10 -2 8 3 21 -2 30 -10 8 -8 17 -12 21 -9 3 4 6
-1 6 -10 0 -9 5 -17 11 -17 18 0 81 -69 74 -80 -4 -6 1 -7 11 -3 12 4 15 3 10
-5 -4 -7 -1 -12 9 -12 9 0 13 -4 10 -10 -9 -14 18 -12 35 3 9 7 8 4 -2 -8 -14
-19 -14 -22 8 -43 13 -12 24 -19 24 -15 0 4 7 -3 16 -15 8 -12 20 -20 25 -17
5 3 6 -1 3 -9 -3 -9 -10 -16 -15 -16 -5 0 -9 -8 -9 -17 0 -14 -2 -15 -9 -5 -6
10 -10 8 -14 -8 -4 -16 -11 -21 -23 -16 -14 5 -15 4 -4 -9 11 -13 10 -14 -4
-9 -11 4 -16 2 -14 -7 2 -8 -3 -13 -10 -11 -6 1 -11 -4 -10 -10 2 -7 -3 -12
-11 -10 -12 3 -12 0 -2 -11 9 -12 8 -15 -6 -13 -11 0 -17 -5 -17 -16 1 -10 -2
-15 -7 -12 -5 3 -20 -6 -32 -20 -13 -14 -27 -23 -30 -19 -4 3 -4 -4 -2 -17 4
-22 4 -22 -17 -4 -21 19 -21 19 -9 -4 9 -18 9 -22 -1 -20 -7 2 -12 -3 -10 -11
2 -11 0 -12 -10 -4 -17 14 -41 -9 -27 -26 6 -8 5 -8 -3 -1 -17 14 -31 12 -22
-2 5 -8 0 -7 -11 2 -17 14 -18 13 -12 -3 5 -13 3 -16 -6 -10 -6 4 -25 6 -42 4
-62 -7 -70 -7 -87 1 -14 7 -18 4 -18 -9 0 -15 -1 -15 -14 2 -12 17 -16 18 -32
5 -17 -14 -18 -13 -6 2 9 11 10 18 2 23 -5 3 -10 0 -10 -7 -1 -9 -5 -7 -14 5
-7 9 -20 17 -27 17 -8 0 -21 9 -29 20 -8 11 -20 20 -27 20 -7 0 -12 6 -11 13
2 6 -3 11 -11 9 -9 -2 -11 3 -7 13 4 11 2 14 -6 9 -7 -5 -9 0 -6 14 4 15 2 19
-8 15 -13 -5 -20 21 -15 50 1 5 -4 5 -10 1 -9 -5 -10 -2 -6 9 3 9 1 19 -4 23
-6 3 -9 15 -6 25 3 11 0 19 -6 19 -7 0 -5 5 3 10 13 8 13 10 1 10 -12 0 -12 3
-3 12 16 16 15 31 0 22 -9 -5 -9 -2 1 9 7 9 10 17 6 17 -4 0 0 12 10 26 11 18
12 24 4 18 -12 -6 -12 -5 -1 8 10 13 10 17 0 22 -7 3 -3 4 8 2 17 -3 20 1 17
15 -4 14 0 19 13 19 16 0 17 2 4 10 -13 8 -12 10 3 10 9 0 16 3 16 8 -4 22 3
31 18 25 11 -4 14 -3 9 5 -4 7 -2 12 4 12 6 0 8 5 4 13 -5 7 0 6 11 -3 15 -12
17 -12 10 -1 -6 11 -4 13 8 8 11 -4 14 -2 10 9 -3 9 1 14 12 14 12 0 15 5 10
20 -4 11 -2 20 4 20 6 0 10 -6 9 -12z m298 -3 c-1 -8 -5 -17 -8 -21 -5 -4 -4
16 1 34 3 9 9 -1 7 -13z m-458 -20 c-3 -3 -9 2 -12 12 -6 14 -5 15 5 6 7 -7
10 -15 7 -18z m1522 9 c8 -4 21 -8 29 -10 8 -1 18 -9 22 -16 5 -7 9 -9 9 -5 0
5 18 -6 41 -23 23 -19 38 -38 35 -46 -3 -8 -2 -13 2 -13 17 3 35 -2 29 -7 -3
-4 0 -13 8 -21 17 -16 37 -82 29 -95 -3 -4 -1 -8 4 -8 11 0 9 -71 -3 -89 -5
-9 -4 -12 3 -8 6 5 8 0 5 -13 -3 -11 -10 -17 -17 -13 -6 4 -5 -1 3 -10 12 -15
11 -17 -2 -17 -11 0 -14 -5 -10 -16 4 -11 -1 -22 -12 -30 -10 -8 -15 -14 -10
-14 4 0 0 -9 -10 -20 -10 -11 -23 -17 -29 -13 -6 3 -8 3 -4 -1 9 -11 -34 -52
-50 -48 -8 2 -12 -1 -9 -5 9 -14 -47 -43 -72 -38 -11 2 -21 0 -21 -4 0 -12
-34 -9 -42 3 -5 8 -8 7 -8 -1 0 -7 -9 -13 -20 -13 -11 0 -20 6 -20 13 0 8 -4
7 -10 -3 -7 -11 -10 -11 -10 -2 0 7 -5 10 -11 6 -6 -3 -15 0 -20 7 -5 9 -9 10
-9 2 0 -7 -17 -2 -45 12 -61 33 -275 246 -275 274 0 12 5 19 10 16 6 -3 10 1
10 9 0 16 33 39 43 30 3 -3 8 0 13 7 4 8 3 10 -4 5 -17 -10 -15 1 5 24 10 11
24 20 32 20 8 0 12 3 8 6 -8 8 59 74 75 74 6 0 9 3 5 6 -6 7 16 34 28 34 3 0
22 12 40 26 19 14 38 23 42 21 5 -3 19 0 32 7 23 13 132 13 161 0z m-760 -320
c0 -8 -19 -13 -24 -6 -3 5 1 9 9 9 8 0 15 -2 15 -3z m-880 -48 c0 -2 -8 -10
-17 -17 -16 -13 -17 -12 -4 4 13 16 21 21 21 13z m680 -136 c0 -5 -2 -10 -4
-10 -3 0 -8 5 -11 10 -3 6 -1 10 4 10 6 0 11 -4 11 -10z m-46 -78 c3 -5 -1 -9
-9 -9 -8 0 -12 4 -9 9 3 4 7 8 9 8 2 0 6 -4 9 -8z m62 -4 c3 -4 -1 -5 -10 -4
-8 1 -18 5 -22 8 -3 4 1 5 10 4 8 -1 18 -5 22 -8z m-32 -56 c3 -5 -1 -9 -9 -9
-8 0 -12 4 -9 9 3 4 7 8 9 8 2 0 6 -4 9 -8z m-143 -19 c13 -16 12 -17 -3 -4
-10 7 -18 15 -18 17 0 8 8 3 21 -13z m-181 -19 c0 -8 -19 -13 -24 -6 -3 5 1 9
9 9 8 0 15 -2 15 -3z m80 2 c0 -3 -4 -8 -10 -11 -5 -3 -10 -1 -10 4 0 6 5 11
10 11 6 0 10 -2 10 -4z m194 -8 c-3 -4 -11 -5 -19 -1 -21 7 -19 12 4 10 11 0
18 -5 15 -9z m61 3 c-9 -8 -36 -10 -30 -2 2 4 11 8 20 8 8 0 13 -3 10 -6z
m-255 -41 c0 -5 -2 -10 -4 -10 -3 0 -8 5 -11 10 -3 6 -1 10 4 10 6 0 11 -4 11
-10z m-60 -16 c0 -8 -19 -13 -24 -6 -3 5 1 9 9 9 8 0 15 -2 15 -3z m194 -10
c3 -8 2 -12 -4 -9 -6 3 -10 10 -10 16 0 14 7 11 14 -7z m-179 -13 c3 -5 2 -12
-3 -15 -5 -3 -9 1 -9 9 0 17 3 19 12 6z m40 0 c3 -5 2 -12 -3 -15 -5 -3 -9 1
-9 9 0 17 3 19 12 6z"/>
</g>
</svg>
